<svg width="359" height="359" viewBox="0 0 359 359" fill="none" xmlns="http://www.w3.org/2000/svg">
<path d="M105.415 70.8843H105.326" stroke="#231F20" stroke-width="2.24818" stroke-miterlimit="10"/>
<path d="M237.338 11.5322H237.249" stroke="#231F20" stroke-width="2.24818" stroke-miterlimit="10"/>
<path d="M357.752 179.876C357.752 257.843 307.572 324.119 237.699 348.13C229.336 323.22 207.443 240.43 209.421 53.921L202.921 54.421L196.921 55.421C181.921 59.421 177.421 58.921 162.421 66.921L152.538 72.9525C152.538 72.9525 164.229 211.62 224.75 352.086C218.724 353.615 212.519 354.874 206.135 355.773C192.735 338.687 134.643 257.483 126.819 124.751L117.646 131.765C110.542 136.441 103.887 138.15 95.5242 139.499L84.8229 140.038C84.8229 140.038 100.65 215.127 194.894 357.032C189.948 357.572 184.912 357.752 179.876 357.752C81.5855 357.752 2 278.166 2 179.876C2 157.844 5.9568 136.711 13.3308 117.287C30.417 106.495 51.9995 94.2652 77.9884 82.3948C75.4705 86.3516 73.9417 91.1178 73.9417 96.2436C73.9417 110.632 85.6323 122.322 100.021 122.322C114.409 122.322 126.01 110.632 126.01 96.2436C126.01 83.6538 117.107 73.2223 105.326 70.7942C151.279 52.7189 208.293 36.9816 276.188 30.327C325.288 61.9814 357.752 117.107 357.752 179.876Z" fill="url(#paint0_radial_4_22)"/>
<path d="M357.752 179.876C357.752 257.843 307.572 324.119 237.699 348.13C229.336 323.22 207.443 240.43 209.421 53.921L202.921 54.421L196.921 55.421C181.921 59.421 177.421 58.921 162.421 66.921L152.538 72.9525C152.538 72.9525 164.229 211.62 224.75 352.086C218.724 353.615 212.519 354.874 206.135 355.773C192.735 338.687 134.643 257.483 126.819 124.751L117.646 131.765C110.542 136.441 103.887 138.15 95.5242 139.499L84.8229 140.038C84.8229 140.038 100.65 215.127 194.894 357.032C189.948 357.572 184.912 357.752 179.876 357.752C81.5855 357.752 2 278.166 2 179.876C2 157.844 5.9568 136.711 13.3308 117.287C30.417 106.495 51.9995 94.2652 77.9884 82.3948C75.4705 86.3516 73.9417 91.1178 73.9417 96.2436C73.9417 110.632 85.6323 122.322 100.021 122.322C114.409 122.322 126.01 110.632 126.01 96.2436C126.01 83.6538 117.107 73.2223 105.326 70.7942C151.279 52.7189 208.293 36.9816 276.188 30.327C325.288 61.9814 357.752 117.107 357.752 179.876Z" fill="url(#paint1_linear_4_22)"/>
<path d="M357.752 179.876C357.752 257.843 307.572 324.119 237.699 348.13C229.336 323.22 207.443 240.43 209.421 53.921L202.921 54.421L196.921 55.421C181.921 59.421 177.421 58.921 162.421 66.921L152.538 72.9525C152.538 72.9525 164.229 211.62 224.75 352.086C218.724 353.615 212.519 354.874 206.135 355.773C192.735 338.687 134.643 257.483 126.819 124.751L117.646 131.765C110.542 136.441 103.887 138.15 95.5242 139.499L84.8229 140.038C84.8229 140.038 100.65 215.127 194.894 357.032C189.948 357.572 184.912 357.752 179.876 357.752C81.5855 357.752 2 278.166 2 179.876C2 157.844 5.9568 136.711 13.3308 117.287C30.417 106.495 51.9995 94.2652 77.9884 82.3948C75.4705 86.3516 73.9417 91.1178 73.9417 96.2436C73.9417 110.632 85.6323 122.322 100.021 122.322C114.409 122.322 126.01 110.632 126.01 96.2436C126.01 83.6538 117.107 73.2223 105.326 70.7942C151.279 52.7189 208.293 36.9816 276.188 30.327C325.288 61.9814 357.752 117.107 357.752 179.876Z" stroke="#231F20" stroke-width="2.24818" stroke-miterlimit="10"/>
<path d="M237.25 11.4424C138.959 24.6616 68.7261 61.4418 24.7517 92.9163C55.1471 38.6903 113.15 2 179.966 2C200.02 2 219.264 5.3273 237.25 11.4424Z" fill="url(#paint2_radial_4_22)"/>
<path d="M237.25 11.4424C138.959 24.6616 68.7261 61.4418 24.7517 92.9163C55.1471 38.6903 113.15 2 179.966 2C200.02 2 219.264 5.3273 237.25 11.4424Z" fill="url(#paint3_radial_4_22)" fill-opacity="0.2"/>
<path d="M237.25 11.4424C138.959 24.6616 68.7261 61.4418 24.7517 92.9163C55.1471 38.6903 113.15 2 179.966 2C200.02 2 219.264 5.3273 237.25 11.4424Z" stroke="#231F20" stroke-width="2.24818" stroke-miterlimit="10"/>
<defs>
<radialGradient id="paint0_radial_4_22" cx="0" cy="0" r="1" gradientUnits="userSpaceOnUse" gradientTransform="translate(260.421 80.421) rotate(86.949) scale(197.28 197.28)">
<stop offset="0.015625" stop-color="#B6E9F9"/>
<stop offset="0.484375" stop-color="#5D42AB"/>
<stop offset="0.770833" stop-color="#464097"/>
<stop offset="1" stop-color="#3C4896"/>
</radialGradient>
<linearGradient id="paint1_linear_4_22" x1="100" y1="404.5" x2="125.5" y2="194" gradientUnits="userSpaceOnUse">
<stop stop-color="#8025AD"/>
<stop offset="1" stop-color="#8025AD" stop-opacity="0"/>
</linearGradient>
<radialGradient id="paint2_radial_4_22" cx="0" cy="0" r="1" gradientUnits="userSpaceOnUse" gradientTransform="translate(311.5 -83.5) rotate(140.606) scale(249.742 249.742)">
<stop stop-color="#563F9E"/>
<stop offset="0.567708" stop-color="#B9EBFC"/>
<stop offset="1" stop-color="#5C43A9"/>
</radialGradient>
<radialGradient id="paint3_radial_4_22" cx="0" cy="0" r="1" gradientUnits="userSpaceOnUse" gradientTransform="translate(192.5 35.75) rotate(93.6248) scale(166.082 388.182)">
<stop stop-color="#63188F"/>
<stop offset="1" stop-color="#6A84D3"/>
</radialGradient>
</defs>
</svg>
